# xmcd CD database file generated by OrangeCD 4.3
#
# Track frame offsets:
#	150
#	11332
#	20712
#	32535
#	45605
#	57437
#	69265
#	82435
#	94032
#	108015
#	118107
#	130725
#	142060
#	156327
#	167122
#	179450
#	193572
#	204560
#	216205
#	227695
#	235972
#	251240
#	261110
#	270675
#	284200
#	295325
#	305907
#	318397
#	327497
#	339677
#
# Disc length: 4691 seconds
#
# Revision: 0
# Processed by: cddbd v1.4PL0 Copyright (c) Steve Scherf et al.
# Submitted via: OrangeCD 4.3
#
DISCID=d712511e
DTITLE=Various Artist - Bump Jump Jive Vol. 3
DYEAR=1900
DGENRE=Blues
TTITLE0=Joe Turner - Well All Right
TTITLE1=Teddy McRae - Mr. Bear Comes To Town
TTITLE2=Wynonie Harris - Good Morning Judge
TTITLE3=Ruth Brown - Mama He Treats Your Daughter Mean
TTITLE4=Lucky Millinder - Chew Tobacco Rag
TTITLE5=Roy Brown - Shake 'Em Up Baby
TTITLE6=J.T. Brown - Windy City Boogie Rock
TTITLE7=Louis Jordon - Ain't Nobody Here But Us Chickens
TTITLE8=Amos Milburn - Birmingham Bounce
TTITLE9=Smiley Lewis - Rootin' N' Tootin'
TTITLE10=Joe Turner - Flip, Flop and Fly
TTITLE11=Jimmy Maddin - Boogie Boo
TTITLE12=Eddie Snow - Who's Been Drinking My Wine
TTITLE13=Jim Wilson - J.W. Boogie
TTITLE14=Louis Jordan - Messy Bessy
TTITLE15=Earl Hooker - The Hucklebuck
TTITLE16=Herald Burrage - I Love My Baby
TTITLE17=Big Jay McNeely - Nervous Man Nervous
TTITLE18=Joe Liggins and The Honeydrippers - 3 O'Clock Jump (Part 2)
TTITLE19=George Jenkins - Shufflin' Boogie
TTITLE20=Calvin Boze - Slippin' and Slidin'
TTITLE21=James Brown Band - Chonnie On Chon
TTITLE22=Ravon Darnell - Chicken Little
TTITLE23=Joe Turner - Shake Rattle and Roll
TTITLE24=Buddy Johnson - Bring It Home To Me
TTITLE25=lloyd Fatman - Miss Mushmouth
TTITLE26=Tommy Ridgeley - Jam Up Twist
TTITLE27=Thurston Harris - Do What You Did
TTITLE28=Varetta Dillard - Scorched
TTITLE29=Big Boy Groves - I Gotta New Car
EXTD=
EXTT0=
EXTT1=
EXTT2=
EXTT3=
EXTT4=
EXTT5=
EXTT6=
EXTT7=
EXTT8=
EXTT9=
EXTT10=
EXTT11=
EXTT12=
EXTT13=
EXTT14=
EXTT15=
EXTT16=
EXTT17=
EXTT18=
EXTT19=
EXTT20=
EXTT21=
EXTT22=
EXTT23=
EXTT24=
EXTT25=
EXTT26=
EXTT27=
EXTT28=
EXTT29=
PLAYORDER=
